<!DOCTYPE svg PUBLIC "-//W3C//DTD SVG 1.1//EN" "http://www.w3.org/Graphics/SVG/1.1/DTD/svg11.dtd">
<!-- Uploaded to: SVG Repo, www.svgrepo.com, Transformed by: SVG Repo Mixer Tools -->
<svg version="1.1" id="crucifix" xmlns="http://www.w3.org/2000/svg" xmlns:xlink="http://www.w3.org/1999/xlink" width="124px" height="124px" viewBox="-40.96 -40.96 337.92 337.92" xml:space="preserve" fill="#000000">
<g id="SVGRepo_bgCarrier" stroke-width="0" transform="translate(5.1200000000000045,5.1200000000000045), scale(0.96)"/>
<g id="SVGRepo_tracerCarrier" stroke-linecap="round" stroke-linejoin="round" stroke="#CCCCCC" stroke-width="6.656000000000001"> <style type="text/css">  .st0{fill:#cccccc;} .st1{fill:#454545;}  </style> <path class="st0" d="M126.753,256.28c-14.121,0-25.609-11.488-25.609-25.609V119.808H69.667c-14.121,0-25.609-11.488-25.609-25.609 s11.488-25.609,25.609-25.609h31.477V35.329c0-14.121,11.488-25.609,25.609-25.609c14.122,0,25.61,11.488,25.61,25.609v33.261 h31.477c14.121,0,25.609,11.488,25.609,25.609s-11.488,25.609-25.609,25.609h-31.477v110.863 C152.363,244.792,140.875,256.28,126.753,256.28z"/> <path class="st1" d="M199.449,94.199c0,8.621-6.988,15.609-15.609,15.609h-41.477v120.863c0,8.621-6.989,15.609-15.61,15.609 c-8.621,0-15.609-6.988-15.609-15.609V109.808H69.667c-8.621,0-15.609-6.988-15.609-15.609s6.988-15.609,15.609-15.609h41.477 V35.329c0-8.621,6.988-15.609,15.609-15.609c8.621,0,15.61,6.988,15.61,15.609v43.261h41.477 C192.461,78.589,199.449,85.578,199.449,94.199z"/> </g>
<g id="SVGRepo_iconCarrier"> <style type="text/css">  .st0{fill:#cccccc;} .st1{fill:#454545;}  </style> <path class="st0" d="M126.753,256.28c-14.121,0-25.609-11.488-25.609-25.609V119.808H69.667c-14.121,0-25.609-11.488-25.609-25.609 s11.488-25.609,25.609-25.609h31.477V35.329c0-14.121,11.488-25.609,25.609-25.609c14.122,0,25.61,11.488,25.61,25.609v33.261 h31.477c14.121,0,25.609,11.488,25.609,25.609s-11.488,25.609-25.609,25.609h-31.477v110.863 C152.363,244.792,140.875,256.28,126.753,256.28z"/> <path class="st1" d="M199.449,94.199c0,8.621-6.988,15.609-15.609,15.609h-41.477v120.863c0,8.621-6.989,15.609-15.61,15.609 c-8.621,0-15.609-6.988-15.609-15.609V109.808H69.667c-8.621,0-15.609-6.988-15.609-15.609s6.988-15.609,15.609-15.609h41.477 V35.329c0-8.621,6.988-15.609,15.609-15.609c8.621,0,15.61,6.988,15.61,15.609v43.261h41.477 C192.461,78.589,199.449,85.578,199.449,94.199z"/> </g>
</svg>